<?xml version="1.0" standalone="no"?>
<!DOCTYPE svg PUBLIC "-//W3C//DTD SVG 20010904//EN"
 "http://www.w3.org/TR/2001/REC-SVG-20010904/DTD/svg10.dtd">
<svg version="1.0" xmlns="http://www.w3.org/2000/svg"
 width="512.000000pt" height="512.000000pt" viewBox="0 0 512.000000 512.000000"
 preserveAspectRatio="xMidYMid meet">

<g transform="translate(0.000000,512.000000) scale(0.100000,-0.100000)"
fill="#000000" stroke="none">
<path d="M2120 4625 c-156 -32 -291 -99 -421 -208 l-47 -38 -48 24 c-175 89
-396 100 -583 31 -232 -87 -410 -296 -456 -538 -8 -39 -18 -72 -23 -74 -59
-19 -209 -150 -264 -230 -157 -227 -169 -544 -31 -782 49 -83 180 -214 263
-263 77 -45 199 -84 293 -95 l67 -7 -420 -727 c-271 -471 -425 -748 -436 -785
-47 -161 45 -353 203 -426 l48 -22 1120 0 1120 0 57 27 c67 31 137 99 168 163
22 44 22 45 50 30 52 -27 197 -63 299 -75 184 -22 390 17 562 106 94 48 192
119 248 177 l34 36 49 -25 c94 -48 190 -67 333 -67 153 0 238 19 362 81 565
285 608 1065 78 1412 -72 46 -180 93 -247 105 -32 6 -36 11 -52 63 -81 259
-294 489 -547 588 l-69 27 0 56 c-1 215 -120 460 -293 601 -71 58 -218 134
-294 151 l-51 12 -31 86 c-106 297 -365 522 -673 585 -93 19 -276 20 -368 1z
m354 -205 c260 -66 462 -269 522 -525 22 -95 46 -118 137 -134 265 -46 462
-258 493 -528 l7 -63 -89 0 c-222 0 -427 -74 -598 -217 l-64 -53 -75 35 c-104
48 -193 67 -312 67 -128 0 -216 -21 -333 -79 -113 -55 -236 -166 -297 -267
-22 -36 -42 -66 -45 -66 -3 0 -34 52 -70 116 -75 133 -128 192 -208 231 -51
25 -68 28 -157 28 -82 0 -109 -4 -147 -22 -69 -32 -136 -100 -193 -196 -56
-95 -59 -97 -172 -97 -137 0 -269 56 -368 155 -163 163 -200 398 -98 613 38
79 149 188 234 229 80 39 109 71 109 124 0 156 97 327 241 423 96 63 158 80
289 80 131 0 183 -16 288 -83 32 -21 68 -42 79 -45 34 -11 75 12 148 84 72 70
150 125 221 155 134 57 317 71 458 35z m1252 -1470 c271 -69 476 -275 543
-544 11 -44 29 -88 40 -99 12 -12 53 -27 107 -38 202 -43 352 -157 440 -334
85 -172 84 -367 -3 -544 -52 -105 -169 -222 -273 -273 -98 -48 -220 -73 -317
-64 -85 7 -208 45 -273 85 -91 56 -121 49 -207 -47 -105 -118 -261 -210 -420
-249 -45 -10 -109 -16 -188 -16 -138 1 -233 22 -342 75 -56 27 -71 40 -87 73
-11 22 -192 339 -403 704 -211 365 -383 672 -383 681 0 9 9 43 20 75 116 338
527 476 820 276 47 -32 69 -41 102 -41 37 0 47 5 87 48 113 119 243 198 385
233 101 25 252 24 352 -1z m-2268 -194 c15 -8 36 -25 48 -38 33 -37 1047
-1799 1057 -1838 13 -48 2 -103 -30 -140 -53 -64 21 -60 -1148 -60 -1181 0
-1097 -5 -1152 67 -23 30 -28 47 -28 92 0 56 3 61 514 946 283 490 523 903
534 918 43 62 140 87 205 53z"/>
<path d="M1325 2295 c-50 -17 -102 -76 -112 -124 -7 -38 52 -612 69 -668 20
-66 91 -99 152 -71 51 23 57 46 92 352 38 325 40 372 20 419 -17 42 -66 83
-114 97 -47 13 -58 12 -107 -5z"/>
<path d="M1343 1199 c-71 -21 -109 -109 -77 -176 42 -84 142 -108 204 -48 58
56 63 126 14 184 -21 25 -81 54 -104 50 -3 0 -19 -5 -37 -10z"/>
</g>
</svg>
