<?xml version="1.0" standalone="no"?>
<!DOCTYPE svg PUBLIC "-//W3C//DTD SVG 20010904//EN"
 "http://www.w3.org/TR/2001/REC-SVG-20010904/DTD/svg10.dtd">
<svg version="1.0" xmlns="http://www.w3.org/2000/svg"
 width="512.000000pt" height="512.000000pt" viewBox="0 0 512.000000 512.000000"
 preserveAspectRatio="xMidYMid meet">

<g transform="translate(0.000000,512.000000) scale(0.100000,-0.100000)"
fill="#000000" stroke="none">
<path d="M4565 5106 c-84 -21 -147 -57 -211 -121 -177 -176 -177 -453 1 -630
258 -259 695 -118 757 244 24 141 -22 281 -127 387 -112 113 -269 158 -420
120z m175 -306 c45 -23 80 -80 80 -130 0 -76 -74 -150 -151 -150 -46 0 -108
39 -130 82 -37 72 -14 151 57 194 48 29 92 30 144 4z"/>
<path d="M2788 4789 c-43 -22 -78 -81 -78 -129 0 -17 9 -49 20 -70 23 -45 80
-80 130 -80 50 0 107 35 130 80 11 21 20 53 20 70 0 50 -35 107 -80 130 -49
25 -94 25 -142 -1z"/>
<path d="M1830 4504 c-19 -3 -73 -14 -119 -26 -382 -93 -681 -396 -773 -781
l-22 -93 -110 -26 c-529 -128 -880 -650 -791 -1179 49 -297 207 -537 467 -709
49 -32 113 -68 144 -80 52 -21 57 -27 84 -86 158 -350 506 -589 890 -611 200
-11 416 40 580 138 46 27 86 49 89 49 3 0 22 -23 41 -52 93 -137 297 -298 454
-359 159 -61 217 -72 391 -73 137 0 173 3 249 23 200 52 366 148 506 291 139
142 234 318 276 510 l16 75 107 26 c572 138 920 710 776 1274 -48 190 -169
388 -316 517 -75 66 -220 159 -286 184 -41 16 -48 24 -74 81 -156 349 -505
588 -889 610 -200 11 -421 -41 -583 -139 -44 -26 -83 -48 -86 -48 -3 0 -22 23
-41 52 -94 138 -295 298 -454 359 -138 53 -220 70 -361 74 -71 2 -146 1 -165
-1z m315 -318 c33 -9 101 -37 152 -62 155 -77 267 -197 351 -374 34 -71 48
-90 80 -108 77 -43 121 -30 229 68 217 199 515 252 791 141 178 -71 333 -233
407 -426 20 -51 46 -102 59 -114 12 -11 62 -36 110 -55 115 -46 198 -100 283
-189 232 -241 276 -558 120 -862 -48 -94 -177 -229 -269 -284 -114 -66 -266
-111 -378 -111 -105 0 -170 -65 -170 -170 0 -28 -7 -86 -16 -128 -75 -361
-409 -622 -769 -599 -119 8 -191 27 -302 83 -152 76 -272 202 -347 365 -45 98
-91 139 -155 139 -49 0 -75 -15 -158 -90 -85 -78 -229 -156 -333 -181 -72 -18
-270 -18 -339 0 -245 62 -435 231 -526 466 -20 51 -46 102 -59 114 -12 11 -62
36 -110 55 -115 46 -198 100 -283 189 -109 114 -171 230 -199 375 -31 161 -10
300 68 461 44 91 61 116 137 190 89 89 159 137 258 176 72 29 196 55 263 55
105 0 170 65 170 170 0 28 7 86 16 128 60 294 284 519 584 587 80 18 249 13
335 -9z"/>
<path d="M1888 3289 c-43 -22 -78 -81 -78 -129 0 -50 35 -107 80 -130 21 -11
53 -20 70 -20 76 0 150 74 150 150 0 50 -35 107 -80 130 -49 25 -94 25 -142
-1z"/>
<path d="M3388 3289 c-43 -22 -78 -81 -78 -129 0 -50 35 -107 80 -130 21 -11
53 -20 70 -20 17 0 49 9 70 20 45 23 80 80 80 130 0 50 -35 107 -80 130 -49
25 -94 25 -142 -1z"/>
<path d="M988 2689 c-43 -22 -78 -81 -78 -129 0 -76 74 -150 150 -150 76 0
150 74 150 150 0 50 -35 107 -80 130 -49 25 -94 25 -142 -1z"/>
<path d="M2488 2689 c-43 -22 -78 -81 -78 -129 0 -50 35 -107 80 -130 21 -11
53 -20 70 -20 76 0 150 74 150 150 0 50 -35 107 -80 130 -49 25 -94 25 -142
-1z"/>
<path d="M3988 2689 c-43 -22 -78 -81 -78 -129 0 -17 9 -49 20 -70 23 -45 80
-80 130 -80 76 0 150 74 150 150 0 50 -35 107 -80 130 -49 25 -94 25 -142 -1z"/>
<path d="M1588 2089 c-43 -22 -78 -81 -78 -129 0 -17 9 -49 20 -70 23 -45 80
-80 130 -80 76 0 150 74 150 150 0 50 -35 107 -80 130 -49 25 -94 25 -142 -1z"/>
<path d="M3088 2089 c-43 -22 -78 -81 -78 -129 0 -17 9 -49 20 -70 23 -45 80
-80 130 -80 76 0 150 74 150 150 0 50 -35 107 -80 130 -49 25 -94 25 -142 -1z"/>
<path d="M388 4189 c-43 -22 -78 -81 -78 -129 0 -76 74 -150 150 -150 76 0
150 74 150 150 0 50 -35 107 -80 130 -49 25 -94 25 -142 -1z"/>
<path d="M4588 1189 c-43 -22 -78 -81 -78 -129 0 -76 74 -150 150 -150 76 0
150 74 150 150 0 50 -35 107 -80 130 -49 25 -94 25 -142 -1z"/>
<path d="M345 886 c-84 -21 -147 -57 -211 -121 -177 -176 -177 -453 1 -630
258 -259 695 -118 757 244 24 141 -22 281 -127 387 -112 113 -269 158 -420
120z m175 -306 c45 -23 80 -80 80 -130 0 -76 -74 -150 -151 -150 -46 0 -108
39 -130 82 -37 72 -14 151 57 194 48 29 92 30 144 4z"/>
<path d="M1888 589 c-43 -22 -78 -81 -78 -129 0 -76 74 -150 150 -150 76 0
150 74 150 150 0 50 -35 107 -80 130 -49 25 -94 25 -142 -1z"/>
</g>
</svg>
